/* XPM */
static const char *chainReactionICON[] = {
/* columns rows colors chars-per-pixel */
"64 64 116 2 ",
"   c #000000",
".  c #0B0000",
"X  c #000B00",
"o  c #0E0B00",
"O  c #00000C",
"+  c #140000",
"@  c #1C0000",
"#  c #1B0E00",
"$  c #001300",
"%  c #0C1300",
"&  c #001C00",
"*  c #0C1900",
"=  c #1A1300",
"-  c #1D1F00",
";  c #000013",
":  c #00001C",
">  c #230000",
",  c #2B0000",
"<  c #210E00",
"1  c #2C0E00",
"2  c #350000",
"3  c #3B0000",
"4  c #201A00",
"5  c #2A1D00",
"6  c #002400",
"7  c #0B2300",
"8  c #002B00",
"9  c #0D2E00",
"0  c #1A2300",
"q  c #1C2D00",
"w  c #003300",
"e  c #093100",
"r  c #003B00",
"t  c #153B00",
"y  c #2B2200",
"u  c #2B2A00",
"i  c #223500",
"p  c #2A3500",
"a  c #2C3E00",
"s  c #000023",
"d  c #00002A",
"f  c #000034",
"g  c #00003A",
"h  c #440000",
"j  c #4C0000",
"k  c #540000",
"l  c #5B0000",
"z  c #640000",
"x  c #6B0000",
"c  c #740000",
"v  c #7C0000",
"b  c #004400",
"n  c #094100",
"m  c #004C00",
"M  c #104600",
"N  c #184600",
"B  c #144F00",
"V  c #005300",
"C  c #005B00",
"Z  c #234400",
"A  c #006300",
"S  c #006B00",
"D  c #007300",
"F  c #007B00",
"G  c #000044",
"H  c #00004B",
"J  c #000052",
"K  c #00005C",
"L  c #000063",
"P  c #00006C",
"I  c #000073",
"U  c #00007B",
"Y  c #830000",
"T  c #8C0000",
"R  c #940000",
"E  c #9B0000",
"W  c #A30000",
"Q  c #AB0000",
"!  c #B30000",
"~  c #BC0000",
"^  c #C30000",
"/  c #CB0000",
"(  c #D50000",
")  c #DD0000",
"_  c #E30000",
"`  c #EC0000",
"'  c #F60000",
"]  c #008300",
"[  c #008C00",
"{  c #009300",
"}  c #009B00",
"|  c #00A300",
" . c #00AC00",
".. c #00B300",
"X. c #00BC00",
"o. c #00C300",
"O. c #00CB00",
"+. c #00D300",
"@. c #00DB00",
"#. c #00E300",
"$. c #00EA00",
"%. c #00F400",
"&. c #00FC00",
"*. c #000084",
"=. c #00008B",
"-. c #000094",
";. c #00009D",
":. c #0000A3",
">. c #0000AA",
",. c #0000B4",
"<. c #0000BC",
"1. c #0000C6",
"2. c #0000CD",
"3. c #0000D4",
"4. c #0000E2",
"5. c #0000F2",
/* pixels */
"            > +       O O O O O ; ; ; ; ; : : : : s : s s s : : : : : ; ; ; ; O O O O O       > +   O   O   O O O O O O ; ; ; ; ",
"          . ,                                                                               + >                                 ",
"          , .                                                                               , .                                 ",
"        @ @                             .                                                 @ @                                   ",
"      . ,                         + @ @ > > @ + .                                       . ,           X X X X X X X             ",
"      , .                     . @ , 2 3 3 3 3 , > + .                                   , .       X $ & 6 6 6 6 & & X           ",
"    + >                     . > 2 h k k l l k j 3 2 @ .                               @ @     X $ & 8 w w r r r w 8 6 & X       ",
"  . ,                     . > 3 j l z x c c x z k h , @ .                           . ,     X $ 8 w r m m V V V m b r 8 6 X     ",
"  > +                     @ 2 j z x Y T T T T c x k 3 , .                           , +   X $ 8 r b V A A S S A A C m b w 6 X   ",
"+ >                     . , h l x Y R W Q Q E R v z k 3 @ .                       + >     $ 6 w m C A D F F ] ] D S C V b 8 &   ",
"2 .                     + 2 j z T R ! ~ ^ ~ ! E T c l 3 , .                     . ,     X & w b V S F ] { { { { [ F D A m r 8 X ",
".                       @ 3 k l x v W / ` ) / ! R v z h , +                     > +     $ 8 r m A D ] } |  . . .| { ] S C m w & ",
"                      . 2 j k k l k k z W ` ( ! E Y z j , +                   + >       & 8 b C D ] }  ...o.o.X...| { F A V r 6 ",
"                    + h k z x c c v c z j x ~ ~ R v z j , +                   , .       & w m A D { | ..O.@.@.@.X. .} ] S C r 8 ",
"                  @ h l z c Y T T T T v c l l E R c l h , .                 > @       X 6 w m A F { | o.@.#.%.#.O...} ] S C b 8 ",
"            .   . 3 k z c T R W W W E T Y c k k Y x k 3 @ .               . ,         X 6 w V A F {  .X.@.$.%.#.O...| ] D C b 8 ",
"                , h l c T R Q ! ~ ~ Q W R v x j l l h , @                 , .         X & w m C D [ | X.O.@.@.@.o. .} ] S V b 8 ",
"              . 2 j z v R W ~ / ( ( / ! E T x l j j 2 > .               @ @             & w b C D ] {  .X.o.O.X...| { F A V r 6 ",
"              + 3 k x v R Q / ) ` ` ( ~ W T c z h 2 > .               . ,               $ 6 r V A F ] } |  ... .} { ] S C m w & ",
"              @ 3 k x Y E ! / ) ' ` ( ~ Q T c z j > .                 , .               X & w m C S ] ] { { } { [ ] D A m r 6 X ",
"              @ 3 j x v R Q ^ ( _ ) / ~ W T c l j +                 + >                   $ 6 w m C S D F ] ] F F S C V b w $   ",
"              + 2 j z c T W ! ^ / / ~ Q E Y x k h .               . ,                       & 8 r b V C A S S S A C V b w &     ",
"              + , h l x Y R W Q Q ! Q E T c z k 2 .               > +                       X $ 8 w b m V V V V m b r w & X     ",
"              . > 2 j l c v T R E E T T v x k h ,               + >                           X X 6 8 w r r b r w w 7 % + @ > > ",
"                + , 3 j l x v Y Y Y v c z l h 2 +               , .                               X $ & 7 9 0 0 4 < > @ + + .   ",
"                . @ , 3 j l z z x x z l k h 3 >               > +                 X       . + + @ > > > > @ + . .               ",
"                  . @ , 2 h j k k k k h 3 2 > .             . ,             . . + @ @ > > @ @ + + . X                           ",
"                    . @ > , 2 3 3 3 3 2 , @ .               , . . . @ @ @ > > @ + + . . X X $ $ $ $ $ X X X                     ",
"                        . @ @ > > > @ @ .         . . + + 2 3 @ > @ + . .         X X $ & & & 6 6 6 6 6 & $ $ X                 ",
"                                . . . . + @ @ @ > @ @ + + 2                     $ $ & 6 8 8 w w w w w 8 8 6 6 $ $ X             ",
"                      . . . @ @ @ @ @ > + + . .         > .                 X $ & 6 8 w w r b b b b b r r w 8 6 & $ X           ",
"          . . + @ @ > > @ @ + + .                     @ >         X X       $ & 6 w w b m m m V V V V m m b r w 8 6 & X         ",
"+ @ @ > > > @ @ . .                                 . < & 8 w r r r r w 8 6 6 8 w r m V V C A A A A C C C m m b w 8 6 & X       ",
"+ + . .                                           X 6 r b b b m m m V V V m b r r m V C A S S D D D D S S C V V b r 8 & $ X     ",
"                                                6 w r b m m V C C C C C C V m m b m A S D F ] ] ] ] ] F D S A C m b r 8 & X     ",
"        O O O O                             X 8 w b m V V A A S S S S S S A C C V m m D ] ] [ { { { { ] ] F D A C m b w 6 & X   ",
"  O ; : s d s s s ; O                     X 8 w b m V C A S D D F F F F D D S A C V b m ] } } | | | } } { ] ] D A C b r w & $   ",
"; s d g g G G G g d s ;                 X 6 w r m V C A D F F ] ] ] ] ] ] F F D S A C b C |  . .......| } { ] F S C V b w 6 $ X ",
"s f G K K K K K J G f s ;               & w r m V C S D F ] [ { } { } { { [ ] F D S A V b D o.X.o.o.X... .} { ] D A C m w 8 & X ",
"g H K L I U I I P K H g s ;           $ 8 w b m C S D F ] [ } } |  .| | } } { ] F D A C V r | @.O.+.O.X...| } ] F S C m r w & # ",
"H K I *.=.-.-.=.U I K G f :         X 6 8 r b V A S F ] { } |  . ....... .| } { ] ] D A C b A @.#.#.+.O.X. .} { ] D C V r w * 1 ",
"K P *.-.:.>.>.:.-.*.I K g d ;       X 6 w b V C S F ] [ } |  .X.X.o.o.X.X...| } { ] D S C V r X.&.$.@.+.o...| { ] D A V b w y % ",
"L U -.>.<.2.1.<.>.-.U L H f ;       $ 8 w b V A S F [ { | ..X.o.O.+.+.O.o.X. .| } [ F D A V r F &.%.#.+.o. .| { F D A V b q - $ ",
"P *.;.,.3.3.4.2.<.;.*.P J f :     X 6 8 r m V A D ] [ }  ...o.O.@.@.@.@.O.o.X. .} [ ] D A C b V #.$.@.O.X...} { ] D C V n u 6 $ ",
"P =.:.<.3.5.5.3.<.:.=.P J g s     X 6 8 r m C A D ] { }  .X.o.@.@.$.$.#.@.O.X...| { ] F S C m r o.#.+.o.X.| } [ F S C V p e 6 X ",
"P *.;.<.3.4.4.3.<.;.*.P J g :     X 6 8 r m C S F ] { | ..X.O.@.#.&.&.$.@.O.X...| { ] D S C m r } +.o.X...| { [ F S C N i 8 & X ",
"L U -.>.<.1.2.<.>.-.U L H f ;     X 6 8 r m V S D ] { |  .X.O.@.$.%.%.$.@.O.X...| { ] F A C m w [ o.....| } [ ] D A V a w 8 & X ",
"K I *.;.>.,.,.>.;.*.I K G d ;     X & 8 r m C A D ] { }  .X.o.+.@.#.$.@.@.o.X. .} { ] F A C m w F ..| | } [ ] D S C Z t w & $ X ",
"H L I *.=.-.;.-.*.I L H f s     . o & 8 r b V A D F [ } | ..o.O.+.@.@.@.O.X... .} { ] D A C m w D | { { [ ] F S C B a r 8 & X   ",
"g H L P U U U I P K H g d O     , . & 8 w b V C S F ] { |  ...o.o.O.o.o.o.X. .} { ] F S C V b 8 D { [ ] F D S A V Z r w 6 $ X   ",
"d g H J K L L K K H g d :     > @ X & 6 w r m C A D ] [ { |  ...X.X.X.X... .| } [ ] D S C V b w D F F D S S C V Z t e 6 & X     ",
"; s f g G G H G g f s ;     . ,     $ & 8 r b V A S F ] { { | |  . . . .| } } [ ] F S A V b r w S S S A A C V M p w 8 & $       ",
"  O : s s d d d s : O       , .     X $ 6 w r m V A S F ] ] { } } } } } } { ] ] F D A C m b w r A C C V V m b p e 6 & $         ",
"      O ; ; ; O O         @ @       X $ & 8 r b V C A S F ] ] [ [ { { { [ ] ] F S A C m b r 8 b m m m b b r i q 8 & $ X         ",
"                        . ,           X & 6 w r b V C A S D F F F ] ] ] F F D S A C V b r 8 8 r r r r r w 9 y & & X             ",
"                        , .             $ & 6 w r b m C C A S S D D D D D S A A V V m r w 6 8 8 e 8 8 8 8 5 * $ X               ",
"                      @ >               X X & 8 8 r b m V C C A A A S A A A C V m b r w 6 & & & & & & & = < X                   ",
"                    . ,                   X $ & 6 w w r b m V V V C V V V m m b r r w 8 $ X X X X X X X ,                       ",
"                    > +                     X X & 6 8 w w r b b m b m m b b r r w 8 6 $               , +                       ",
"                  + >                         X $ & 6 6 8 w w w r r r w r w 8 8 6 6 $           .   + >                         ",
"                . , .                             X $ & 6 6 6 8 8 8 8 8 8 6 6 & & X               . ,                           ",
"                @ +                                   X X $ $ & & & 6 & & & $ X                   > +                           ",
"              + >                                         X X X X $ X X X X                     + >                             ",
"              , .                                                                               , .                             "
};
